<svg xmlns="http://www.w3.org/2000/svg" viewBox="0 0 747.66 253"><defs><style>.cls-1{fill:#ffc300;}</style></defs><g id="Layer_2" data-name="Layer 2"><g id="Layer_1-2" data-name="Layer 1"><g id="Layer_2-2" data-name="Layer 2"><g id="Layer_1-2-2" data-name="Layer 1-2"><path class="cls-1" d="M321.89,168.3V235H290.17V129.76h34.56a2,2,0,0,1,1.85,1q22,30.3,44,60.58c.23.32.47.63.79,1,.3-.38.57-.7.82-1q21.94-30.33,43.89-60.68a1.72,1.72,0,0,1,1.53-.89h35.06V253c-.35-.17-.66-.29-.95-.45l-30-17.12a1.64,1.64,0,0,1-.86-1.74V168c-.48.6-.75.91-1,1.24Q401.13,195.1,382.33,221a2.1,2.1,0,0,1-2,1q-9.06-.06-18.11,0a2.1,2.1,0,0,1-2-1q-18.42-25.51-36.87-51l-1.27-1.74Z"/><path class="cls-1" d="M701,123.27c-.48-.25-.86-.44-1.23-.65Q685,114.17,670.2,105.75a1.75,1.75,0,0,1-1-1.78V80.59a2.37,2.37,0,0,0-.77-1.89c-2.8-2.67-5.56-5.4-8.37-8.07a2.21,2.21,0,0,0-1.34-.56H599v35.15H567.25V0H675.83a2.27,2.27,0,0,1,2.06,1.05q11.18,15.21,22.42,30.37a1.4,1.4,0,0,1,0,2l0,0C694.49,41.19,688.72,49,682.87,56.8c.29.31.57.63.87.93l16.52,16.56a2.63,2.63,0,0,1,.73,1.62q.06,23.28,0,46.52C701,122.66,701,122.89,701,123.27ZM599,46c.33,0,.6.08.87.08H659.1a1.74,1.74,0,0,0,1.24-.64c2.48-3.33,4.88-6.71,7.36-10a1.19,1.19,0,0,0,0-1.68l-.06-.06c-2.34-3-4.67-6.08-6.94-9.17a2.08,2.08,0,0,0-1.88-.94H599Z"/><path class="cls-1" d="M544.59,123.29c-.54-.28-.92-.46-1.29-.67q-14.77-8.31-29.56-16.58a2,2,0,0,1-1.17-2.06V75.16H448.82v30H417V24.72a2.81,2.81,0,0,1,.93-2.18c7.46-7.29,14.88-14.61,22.34-21.9a2.33,2.33,0,0,1,1.44-.6h78.2a2.31,2.31,0,0,1,1.44.6c7.49,7.32,14.94,14.68,22.42,22a2.68,2.68,0,0,1,.87,2.09V122ZM448.88,23.57V51.75h63.61V23.57Z"/><path class="cls-1" d="M267.47,253c-.49-.24-.84-.39-1.18-.58q-14.93-8.37-29.86-16.77a1.63,1.63,0,0,1-1-1.69V204.89H171.71v30H139.87V154.46a2.81,2.81,0,0,1,.93-2.19c7.46-7.29,14.88-14.61,22.34-21.9a2.31,2.31,0,0,1,1.44-.6h78.2a2.29,2.29,0,0,1,1.44.59q11.28,11,22.47,22.12a2.93,2.93,0,0,1,.77,1.85q.06,48.75,0,97.46ZM171.7,181.46h63.71v-28.1H171.7Z"/><path class="cls-1" d="M265.66,0c-.45.48-.73.8-1,1.1L243,22.73a2.49,2.49,0,0,1-2,.81H163.51a2.45,2.45,0,0,0-2.12,1q-3,3.72-6.19,7.33a1,1,0,0,0-.21,1.4.84.84,0,0,0,.21.21c2.19,2.7,4.37,5.41,6.49,8.16a1.86,1.86,0,0,0,1.78.66h77.85a2.19,2.19,0,0,1,2,1q10.88,14.46,21.83,28.87a1.14,1.14,0,0,1,0,1.6s0,0,0,0q-11.38,15.36-22.7,30.76a1.82,1.82,0,0,1-1.67.85h-121c.65-.7,1.14-1.25,1.66-1.77L142.1,82.82a2.8,2.8,0,0,1,2.18-.92h77.49a2.53,2.53,0,0,0,2.22-1c2.13-2.59,4.32-5.13,6.58-7.79l-4.47-5.57c-.78-1-1.61-1.89-2.31-2.91a2.12,2.12,0,0,0-2-1H144.3a2.58,2.58,0,0,1-2.3-1.19q-10.78-14.61-21.64-29.16c-.19-.25-.37-.52-.61-.87L125.92,24,142.78,1.14a2.25,2.25,0,0,1,2-1.09H264.25Z"/><path class="cls-1" d="M595.5,235c.67-.72,1.12-1.23,1.6-1.7l20.88-21a2.56,2.56,0,0,1,2-.81h77.6a2.42,2.42,0,0,0,2.13-1c2.16-2.62,4.38-5.19,6.65-7.86-1.83-2.28-3.8-4.44-5.41-6.85-1.41-2.1-3.09-2.64-5.55-2.63-25.19.1-50.38,0-75.57.08a2.13,2.13,0,0,1-2-1Q607,177.65,596.06,163c-.19-.26-.36-.53-.59-.86l7-9.53q8.09-11,16.14-21.91a2.14,2.14,0,0,1,2-1H741.45c-.48.5-.76.82-1.06,1.12q-10.82,10.78-21.63,21.6a2.53,2.53,0,0,1-2,.8H639.27a2.43,2.43,0,0,0-2.11,1c-2,2.41-4,4.81-6,7.13-.71.79-.61,1.26,0,2,2.06,2.5,4.09,5,6,7.6a2.4,2.4,0,0,0,2.21,1h77.48a2.49,2.49,0,0,1,2.28,1.1q10.83,14.41,21.76,28.77a1.14,1.14,0,0,1,0,1.63l0,0q-11.39,15.36-22.7,30.75a1.82,1.82,0,0,1-1.69.83H596.8Z"/><path class="cls-1" d="M31.86,23.53V42.22h78.32l.19.28c-.72.66-1.46,1.29-2.15,2q-9,9-18,18.06a3.15,3.15,0,0,1-2.49,1.06H31.86V81.76H122c-.4.45-.61.71-.84.95q-11,11-22,21.9a2.52,2.52,0,0,1-1.65.66H.07V.08H125.7c-.83.87-1.52,1.62-2.24,2.34q-10,10.14-20.1,20.26a2.65,2.65,0,0,1-2.08.87H33.39Z"/><path class="cls-1" d="M475.83,235V129.82H601.47c-.83.87-1.52,1.61-2.23,2.33q-10.07,10.14-20.11,20.26a2.61,2.61,0,0,1-2.08.87h-69.4V172H586l.19.29c-.71.66-1.46,1.28-2.15,2-6,6-12.06,12-18,18.07a3.27,3.27,0,0,1-2.61,1h-55.7v18.18h90.14c-.39.45-.59.72-.83.95q-11,11-22,21.91a2.54,2.54,0,0,1-1.65.66H477.07Z"/><path class="cls-1" d="M125.73,130.13c-1.28,1.2-2.58,2.36-3.82,3.59q-9.48,9.51-19,19a2.43,2.43,0,0,1-1.6.5H31.86v58.19H90.15v-18.1H69.47a2.32,2.32,0,0,1-1.48-.5q-10.18-10.08-20.32-20.22c-.13-.13-.23-.28-.45-.54h74.86v38.33a2.54,2.54,0,0,1-.81,2l-22.12,22a2.52,2.52,0,0,1-1.64.68H24.81a2.39,2.39,0,0,1-1.56-.59Q12,223.42.79,212.32A2.83,2.83,0,0,1,0,210.47V154.84a2.76,2.76,0,0,1,.65-1.77q11.16-11.31,22.42-22.52a2.74,2.74,0,0,1,1.73-.76H125.43Z"/><path class="cls-1" d="M365.39,23.53v99.8l-3.22-1.84q-13.73-7.86-27.46-15.68a1.94,1.94,0,0,1-1.12-2V23.53H303.43a2.5,2.5,0,0,1-1.67-.6Q290.63,11.83,279.57.66l-.48-.55H419.88c-1.73,1.76-3.35,3.43-5,5.09Q406,14.14,397.12,23a2.27,2.27,0,0,1-1.48.48H366.86Z"/><path class="cls-1" d="M724.42,81.61h23.24v23.16H724.42Z"/></g></g></g></g></svg>